999
"DXF R12 Output" (www.mydxf.blogspot.com)
 0 
SECTION
 2 
HEADER
 9 
$ACADVER
 1 
AC1009
 9 
$EXTMIN
 10 
 0 
 20 
 0 
 9 
$EXTMAX
 10 
 8.5 
 20 
 11 
 0 
ENDSEC
 0 
SECTION
 2 
ENTITIES
0
LINE
8
Image
10
32.022626
20
11.089301
11
28.040143
21
11.712214
0
LINE
8
Image
10
28.040143
20
11.712214
11
24.303919
21
12.867990
0
LINE
8
Image
10
24.303919
20
12.867990
11
20.816625
21
14.555579
0
LINE
8
Image
10
20.816625
20
14.555579
11
17.580931
21
16.773930
0
LINE
8
Image
10
17.580931
20
16.773930
11
16.637502
21
17.527510
0
LINE
8
Image
10
16.637502
20
17.527510
11
15.472691
21
18.692321
0
LINE
8
Image
10
15.472691
20
18.692321
11
14.307881
21
19.857132
0
LINE
8
Image
10
14.307881
20
19.857132
11
13.553814
21
20.800561
0
LINE
8
Image
10
13.553814
20
20.800561
11
12.205061
21
22.658085
0
LINE
8
Image
10
12.205061
20
22.658085
11
11.090602
21
24.478349
0
LINE
8
Image
10
11.090602
20
24.478349
11
10.715566
21
25.180711
0
LINE
8
Image
10
10.715566
20
25.180711
11
11.172823
21
25.487440
0
LINE
8
Image
10
11.172823
20
25.487440
11
11.659415
21
25.818314
0
LINE
8
Image
10
11.659415
20
25.818314
11
11.284782
21
26.702966
0
LINE
8
Image
10
11.284782
20
26.702966
11
10.045657
21
29.983284
0
LINE
8
Image
10
10.045657
20
29.983284
11
9.678834
21
31.541117
0
LINE
8
Image
10
9.678834
20
31.541117
11
9.285461
21
33.560146
0
LINE
8
Image
10
9.285461
20
33.560146
11
9.046841
21
35.750254
0
LINE
8
Image
10
9.046841
20
35.750254
11
8.962719
21
36.911395
0
LINE
8
Image
10
8.962719
20
36.911395
11
9.011323
21
38.145109
0
LINE
8
Image
10
9.011323
20
38.145109
11
9.223214
21
40.604990
0
LINE
8
Image
10
9.223214
20
40.604990
11
9.655536
21
42.985587
0
LINE
8
Image
10
9.655536
20
42.985587
11
10.298295
21
45.276905
0
LINE
8
Image
10
10.298295
20
45.276905
11
11.141495
21
47.468947
0
LINE
8
Image
10
11.141495
20
47.468947
11
12.175144
21
49.551719
0
LINE
8
Image
10
12.175144
20
49.551719
11
13.389245
21
51.515226
0
LINE
8
Image
10
13.389245
20
51.515226
11
14.773804
21
53.349472
0
LINE
8
Image
10
14.773804
20
53.349472
11
16.318827
21
55.044462
0
LINE
8
Image
10
16.318827
20
55.044462
11
18.014318
21
56.590200
0
LINE
8
Image
10
18.014318
20
56.590200
11
19.850284
21
57.976691
0
LINE
8
Image
10
19.850284
20
57.976691
11
21.816730
21
59.193941
0
LINE
8
Image
10
21.816730
20
59.193941
11
23.903660
21
60.231953
0
LINE
8
Image
10
23.903660
20
60.231953
11
26.101081
21
61.080733
0
LINE
8
Image
10
26.101081
20
61.080733
11
28.398998
21
61.730284
0
LINE
8
Image
10
28.398998
20
61.730284
11
30.787415
21
62.170613
0
LINE
8
Image
10
30.787415
20
62.170613
11
33.256339
21
62.391723
0
LINE
8
Image
10
33.256339
20
62.391723
11
34.344908
21
62.438713
0
LINE
8
Image
10
34.344908
20
62.438713
11
35.506052
21
62.354599
0
LINE
8
Image
10
35.506052
20
62.354599
11
38.629383
21
61.946284
0
LINE
8
Image
10
38.629383
20
61.946284
11
41.626996
21
61.191798
0
LINE
8
Image
10
41.626996
20
61.191798
11
44.473940
21
60.106203
0
LINE
8
Image
10
44.473940
20
60.106203
11
47.145262
21
58.704563
0
LINE
8
Image
10
47.145262
20
58.704563
11
49.616014
21
57.001939
0
LINE
8
Image
10
49.616014
20
57.001939
11
51.861243
21
55.013396
0
LINE
8
Image
10
51.861243
20
55.013396
11
53.856000
21
52.753995
0
LINE
8
Image
10
53.856000
20
52.753995
11
55.575334
21
50.238799
0
LINE
8
Image
10
55.575334
20
50.238799
11
56.269412
21
49.078840
0
LINE
8
Image
10
56.269412
20
49.078840
11
56.614137
21
49.246401
0
LINE
8
Image
10
56.614137
20
49.246401
11
56.941934
21
49.438501
0
LINE
8
Image
10
56.941934
20
49.438501
11
57.052135
21
49.270311
0
LINE
8
Image
10
57.052135
20
49.270311
11
58.069557
21
47.230414
0
LINE
8
Image
10
58.069557
20
47.230414
11
58.961231
21
44.535822
0
LINE
8
Image
10
58.961231
20
44.535822
11
59.636860
21
41.515777
0
LINE
8
Image
10
59.636860
20
41.515777
11
60.006146
21
38.499518
0
LINE
8
Image
10
60.006146
20
38.499518
11
60.090345
21
37.184789
0
LINE
8
Image
10
60.090345
20
37.184789
11
60.004707
21
35.891192
0
LINE
8
Image
10
60.004707
20
35.891192
11
59.737081
21
33.441346
0
LINE
8
Image
10
59.737081
20
33.441346
11
59.269024
21
31.071185
0
LINE
8
Image
10
59.269024
20
31.071185
11
58.608886
21
28.789446
0
LINE
8
Image
10
58.608886
20
28.789446
11
57.765018
21
26.604860
0
LINE
8
Image
10
57.765018
20
26.604860
11
56.745769
21
24.526163
0
LINE
8
Image
10
56.745769
20
24.526163
11
55.559491
21
22.562087
0
LINE
8
Image
10
55.559491
20
22.562087
11
54.214533
21
20.721367
0
LINE
8
Image
10
54.214533
20
20.721367
11
52.719246
21
19.012736
0
LINE
8
Image
10
52.719246
20
19.012736
11
51.081979
21
17.444928
0
LINE
8
Image
10
51.081979
20
17.444928
11
49.311083
21
16.026677
0
LINE
8
Image
10
49.311083
20
16.026677
11
47.414908
21
14.766716
0
LINE
8
Image
10
47.414908
20
14.766716
11
45.401804
21
13.673780
0
LINE
8
Image
10
45.401804
20
13.673780
11
43.280122
21
12.756602
0
LINE
8
Image
10
43.280122
20
12.756602
11
41.058212
21
12.023916
0
LINE
8
Image
10
41.058212
20
12.023916
11
38.744424
21
11.484455
0
LINE
8
Image
10
38.744424
20
11.484455
11
36.347108
21
11.146954
0
LINE
8
Image
10
36.347108
20
11.146954
11
35.228740
21
11.039716
0
LINE
8
Image
10
35.228740
20
11.039716
11
33.770826
21
11.051913
0
LINE
8
Image
10
33.770826
20
11.051913
11
32.022626
21
11.089298
0
LINE
8
Image
10
32.022626
20
11.089298
11
32.022626
21
11.089301
0
LINE
8
Image
10
36.036985
20
13.990163
11
36.422776
21
14.036494
0
LINE
8
Image
10
36.422776
20
14.036494
11
36.861584
21
14.914817
0
LINE
8
Image
10
36.861584
20
14.914817
11
37.372568
21
15.882518
0
LINE
8
Image
10
37.372568
20
15.882518
11
37.444747
21
15.971897
0
LINE
8
Image
10
37.444747
20
15.971897
11
37.603975
21
15.737376
0
LINE
8
Image
10
37.603975
20
15.737376
11
38.184513
21
14.901707
0
LINE
8
Image
10
38.184513
20
14.901707
11
38.605824
21
14.300561
0
LINE
8
Image
10
38.605824
20
14.300561
11
38.725077
21
14.333060
0
LINE
8
Image
10
38.725077
20
14.333060
11
39.424902
21
14.486520
0
LINE
8
Image
10
39.424902
20
14.486520
11
41.335428
21
14.993798
0
LINE
8
Image
10
41.335428
20
14.993798
11
43.250781
21
15.710890
0
LINE
8
Image
10
43.250781
20
15.710890
11
45.137780
21
16.616419
0
LINE
8
Image
10
45.137780
20
16.616419
11
46.963242
21
17.689012
0
LINE
8
Image
10
46.963242
20
17.689012
11
48.693988
21
18.907293
0
LINE
8
Image
10
48.693988
20
18.907293
11
50.296836
21
20.249888
0
LINE
8
Image
10
50.296836
20
20.249888
11
51.738605
21
21.695421
0
LINE
8
Image
10
51.738605
20
21.695421
11
52.986114
21
23.222517
0
LINE
8
Image
10
52.986114
20
23.222517
11
53.323751
21
23.685047
0
LINE
8
Image
10
53.323751
20
23.685047
11
53.304886
21
27.031525
0
LINE
8
Image
10
53.304886
20
27.031525
11
53.286021
21
30.378000
0
LINE
8
Image
10
53.286021
20
30.378000
11
52.907205
21
30.432506
0
LINE
8
Image
10
52.907205
20
30.432506
11
51.422410
21
30.542351
0
LINE
8
Image
10
51.422410
20
30.542351
11
50.316432
21
30.597691
0
LINE
8
Image
10
50.316432
20
30.597691
11
50.148247
21
31.141975
0
LINE
8
Image
10
50.148247
20
31.141975
11
49.358105
21
34.120576
0
LINE
8
Image
10
49.358105
20
34.120576
11
48.708122
21
37.346825
0
LINE
8
Image
10
48.708122
20
37.346825
11
48.525655
21
38.435393
0
LINE
8
Image
10
48.525655
20
38.435393
11
48.482655
21
40.648821
0
LINE
8
Image
10
48.482655
20
40.648821
11
48.493952
21
44.349959
0
LINE
8
Image
10
48.493952
20
44.349959
11
48.548255
21
45.837672
0
LINE
8
Image
10
48.548255
20
45.837672
11
49.183426
21
45.993075
0
LINE
8
Image
10
49.183426
20
45.993075
11
50.145038
21
46.292879
0
LINE
8
Image
10
50.145038
20
46.292879
11
50.471477
21
46.437278
0
LINE
8
Image
10
50.471477
20
46.437278
11
50.681321
21
46.712892
0
LINE
8
Image
10
50.681321
20
46.712892
11
50.891162
21
46.988502
0
LINE
8
Image
10
50.891162
20
46.988502
11
50.888489
21
48.045943
0
LINE
8
Image
10
50.888489
20
48.045943
11
50.829665
21
49.447751
0
LINE
8
Image
10
50.829665
20
49.447751
11
50.773523
21
49.792119
0
LINE
8
Image
10
50.773523
20
49.792119
11
50.593479
21
50.006093
0
LINE
8
Image
10
50.593479
20
50.006093
11
50.413433
21
50.220064
0
LINE
8
Image
10
50.413433
20
50.220064
11
50.014580
21
50.369294
0
LINE
8
Image
10
50.014580
20
50.369294
11
49.615729
21
50.518524
0
LINE
8
Image
10
49.615729
20
50.518524
11
48.900188
21
50.518524
0
LINE
8
Image
10
48.900188
20
50.518524
11
48.184644
21
50.518524
0
LINE
8
Image
10
48.184644
20
50.518524
11
48.104624
21
50.978038
0
LINE
8
Image
10
48.104624
20
50.978038
11
48.024603
21
51.631180
0
LINE
8
Image
10
48.024603
20
51.631180
11
48.024603
21
51.824807
0
LINE
8
Image
10
48.024603
20
51.824807
11
48.140636
21
51.824807
0
LINE
8
Image
10
48.140636
20
51.824807
11
48.512060
21
51.945999
0
LINE
8
Image
10
48.512060
20
51.945999
11
48.767452
21
52.067192
0
LINE
8
Image
10
48.767452
20
52.067192
11
48.903754
21
52.290714
0
LINE
8
Image
10
48.903754
20
52.290714
11
49.033561
21
52.735242
0
LINE
8
Image
10
49.033561
20
52.735242
11
48.895896
21
53.186124
0
LINE
8
Image
10
48.895896
20
53.186124
11
48.751725
21
53.422584
0
LINE
8
Image
10
48.751725
20
53.422584
11
48.442597
21
53.559130
0
LINE
8
Image
10
48.442597
20
53.559130
11
47.915754
21
53.759483
0
LINE
8
Image
10
47.915754
20
53.759483
11
47.698039
21
53.823287
0
LINE
8
Image
10
47.698039
20
53.823287
11
47.614717
21
54.402475
0
LINE
8
Image
10
47.614717
20
54.402475
11
47.479112
21
55.822291
0
LINE
8
Image
10
47.479112
20
55.822291
11
47.426833
21
56.662919
0
LINE
8
Image
10
47.426833
20
56.662919
11
47.283228
21
56.752602
0
LINE
8
Image
10
47.283228
20
56.752602
11
47.170546
21
56.811646
0
LINE
8
Image
10
47.170546
20
56.811646
11
47.108058
21
56.706600
0
LINE
8
Image
10
47.108058
20
56.706600
11
47.016306
21
55.417006
0
LINE
8
Image
10
47.016306
20
55.417006
11
46.896040
21
53.886483
0
LINE
8
Image
10
46.896040
20
53.886483
11
46.852575
21
53.734734
0
LINE
8
Image
10
46.852575
20
53.734734
11
46.467916
21
53.613481
0
LINE
8
Image
10
46.467916
20
53.613481
11
46.083257
21
53.492228
0
LINE
8
Image
10
46.083257
20
53.492228
11
45.894557
21
53.303527
0
LINE
8
Image
10
45.894557
20
53.303527
11
45.705853
21
53.114824
0
LINE
8
Image
10
45.705853
20
53.114824
11
45.661052
21
52.876014
0
LINE
8
Image
10
45.661052
20
52.876014
11
45.616252
21
52.637204
0
LINE
8
Image
10
45.616252
20
52.637204
11
45.738114
21
52.380397
0
LINE
8
Image
10
45.738114
20
52.380397
11
45.998383
21
52.042279
0
LINE
8
Image
10
45.998383
20
52.042279
11
46.393859
21
51.854081
0
LINE
8
Image
10
46.393859
20
51.854081
11
46.592511
21
51.804223
0
LINE
8
Image
10
46.592511
20
51.804223
11
46.551810
21
51.324658
0
LINE
8
Image
10
46.551810
20
51.324658
11
46.461812
21
50.718094
0
LINE
8
Image
10
46.461812
20
50.718094
11
46.412512
21
50.591094
0
LINE
8
Image
10
46.412512
20
50.591094
11
45.918663
21
50.591094
0
LINE
8
Image
10
45.918663
20
50.591094
11
44.856000
21
50.483678
0
LINE
8
Image
10
44.856000
20
50.483678
11
44.287188
21
50.376260
0
LINE
8
Image
10
44.287188
20
50.376260
11
44.058269
21
50.129457
0
LINE
8
Image
10
44.058269
20
50.129457
11
43.829349
21
49.882654
0
LINE
8
Image
10
43.829349
20
49.882654
11
43.735504
21
49.456734
0
LINE
8
Image
10
43.735504
20
49.456734
11
43.641656
21
49.030811
0
LINE
8
Image
10
43.641656
20
49.030811
11
43.640333
21
48.232527
0
LINE
8
Image
10
43.640333
20
48.232527
11
43.639010
21
47.434240
0
LINE
8
Image
10
43.639010
20
47.434240
11
43.736345
21
47.143956
0
LINE
8
Image
10
43.736345
20
47.143956
11
44.214854
21
46.420325
0
LINE
8
Image
10
44.214854
20
46.420325
11
45.140887
21
46.083985
0
LINE
8
Image
10
45.140887
20
46.083985
11
45.768377
21
45.974649
0
LINE
8
Image
10
45.768377
20
45.974649
11
45.943039
21
45.938052
0
LINE
8
Image
10
45.943039
20
45.938052
11
45.894943
21
44.400150
0
LINE
8
Image
10
45.894943
20
44.400150
11
45.482426
21
39.516065
0
LINE
8
Image
10
45.482426
20
39.516065
11
44.616654
21
35.106503
0
LINE
8
Image
10
44.616654
20
35.106503
11
44.041194
21
33.184304
0
LINE
8
Image
10
44.041194
20
33.184304
11
43.385294
21
31.506297
0
LINE
8
Image
10
43.385294
20
31.506297
11
42.659914
21
30.114337
0
LINE
8
Image
10
42.659914
20
30.114337
11
41.876012
21
29.050277
0
LINE
8
Image
10
41.876012
20
29.050277
11
41.602290
21
28.750640
0
LINE
8
Image
10
41.602290
20
28.750640
11
40.332292
21
28.795825
0
LINE
8
Image
10
40.332292
20
28.795825
11
39.062293
21
28.841008
0
LINE
8
Image
10
39.062293
20
28.841008
11
39.058960
21
30.735348
0
LINE
8
Image
10
39.058960
20
30.735348
11
39.003148
21
32.829258
0
LINE
8
Image
10
39.003148
20
32.829258
11
38.950666
21
33.028830
0
LINE
8
Image
10
38.950666
20
33.028830
11
36.633056
21
33.028830
0
LINE
8
Image
10
36.633056
20
33.028830
11
34.315444
21
33.028830
0
LINE
8
Image
10
34.315444
20
33.028830
11
34.279180
21
32.792973
0
LINE
8
Image
10
34.279180
20
32.792973
11
34.197178
21
30.924295
0
LINE
8
Image
10
34.197178
20
30.924295
11
34.151437
21
29.291474
0
LINE
8
Image
10
34.151437
20
29.291474
11
34.073216
21
29.197224
0
LINE
8
Image
10
34.073216
20
29.197224
11
33.844182
21
29.124620
0
LINE
8
Image
10
33.844182
20
29.124620
11
33.693370
21
29.146263
0
LINE
8
Image
10
33.693370
20
29.146263
11
33.598017
21
29.345835
0
LINE
8
Image
10
33.598017
20
29.345835
11
33.502664
21
29.545407
0
LINE
8
Image
10
33.502664
20
29.545407
11
32.835338
21
29.542259
0
LINE
8
Image
10
32.835338
20
29.542259
11
31.887345
21
29.479223
0
LINE
8
Image
10
31.887345
20
29.479223
11
31.417051
21
29.297303
0
LINE
8
Image
10
31.417051
20
29.297303
11
31.297155
21
29.177439
0
LINE
8
Image
10
31.297155
20
29.177439
11
31.271570
21
28.563143
0
LINE
8
Image
10
31.271570
20
28.563143
11
31.245985
21
27.948850
0
LINE
8
Image
10
31.245985
20
27.948850
11
30.051234
21
27.948850
0
LINE
8
Image
10
30.051234
20
27.948850
11
28.856483
21
27.948850
0
LINE
8
Image
10
28.856483
20
27.948850
11
28.716111
21
28.023976
0
LINE
8
Image
10
28.716111
20
28.023976
11
28.575739
21
28.099099
0
LINE
8
Image
10
28.575739
20
28.099099
11
28.575210
21
28.767830
0
LINE
8
Image
10
28.575210
20
28.767830
11
28.497626
21
29.714502
0
LINE
8
Image
10
28.497626
20
29.714502
11
28.420448
21
29.992441
0
LINE
8
Image
10
28.420448
20
29.992441
11
28.153319
21
30.104204
0
LINE
8
Image
10
28.153319
20
30.104204
11
27.886188
21
30.215966
0
LINE
8
Image
10
27.886188
20
30.215966
11
27.196047
21
30.182859
0
LINE
8
Image
10
27.196047
20
30.182859
11
26.401037
21
30.074419
0
LINE
8
Image
10
26.401037
20
30.074419
11
26.115823
21
29.753835
0
LINE
8
Image
10
26.115823
20
29.753835
11
26.035617
21
29.523762
0
LINE
8
Image
10
26.035617
20
29.523762
11
26.035088
21
28.681877
0
LINE
8
Image
10
26.035088
20
28.681877
11
25.987487
21
27.341330
0
LINE
8
Image
10
25.987487
20
27.341330
11
25.940399
21
26.842668
0
LINE
8
Image
10
25.940399
20
26.842668
11
24.300717
21
26.869616
0
LINE
8
Image
10
24.300717
20
26.869616
11
22.661038
21
26.896566
0
LINE
8
Image
10
22.661038
20
26.896566
11
22.645322
21
23.741904
0
LINE
8
Image
10
22.645322
20
23.741904
11
22.629606
21
20.587241
0
LINE
8
Image
10
22.629606
20
20.587241
11
22.947907
21
20.077051
0
LINE
8
Image
10
22.947907
20
20.077051
11
23.870762
21
18.873097
0
LINE
8
Image
10
23.870762
20
18.873097
11
25.671731
21
16.768528
0
LINE
8
Image
10
25.671731
20
16.768528
11
27.084415
21
15.191001
0
LINE
8
Image
10
27.084415
20
15.191001
11
27.435301
21
14.941552
0
LINE
8
Image
10
27.435301
20
14.941552
11
27.730349
21
14.886009
0
LINE
8
Image
10
27.730349
20
14.886009
11
27.833192
21
14.886009
0
LINE
8
Image
10
27.833192
20
14.886009
11
28.394987
21
15.830819
0
LINE
8
Image
10
28.394987
20
15.830819
11
29.012852
21
16.810281
0
LINE
8
Image
10
29.012852
20
16.810281
11
30.175908
21
15.665899
0
LINE
8
Image
10
30.175908
20
15.665899
11
31.486020
21
14.274058
0
LINE
8
Image
10
31.486020
20
14.274058
11
31.689146
21
14.061246
0
LINE
8
Image
10
31.689146
20
14.061246
11
32.218796
21
14.012557
0
LINE
8
Image
10
32.218796
20
14.012557
11
36.037091
21
13.990173
0
LINE
8
Image
10
36.037091
20
13.990173
11
36.036985
21
13.990163
0
LINE
8
Image
10
21.250237
20
21.854768
11
21.160472
21
23.942357
0
LINE
8
Image
10
21.160472
20
23.942357
11
21.077782
21
24.544154
0
LINE
8
Image
10
21.077782
20
24.544154
11
21.161781
21
24.628156
0
LINE
8
Image
10
21.161781
20
24.628156
11
21.245781
21
24.712156
0
LINE
8
Image
10
21.245781
20
24.712156
11
21.245781
21
25.350783
0
LINE
8
Image
10
21.245781
20
25.350783
11
21.245781
21
25.989412
0
LINE
8
Image
10
21.245781
20
25.989412
11
21.155069
21
25.988883
0
LINE
8
Image
10
21.155069
20
25.988883
11
20.596714
21
25.912460
0
LINE
8
Image
10
20.596714
20
25.912460
11
20.129072
21
25.836589
0
LINE
8
Image
10
20.129072
20
25.836589
11
19.893971
21
25.963197
0
LINE
8
Image
10
19.893971
20
25.963197
11
19.712067
21
26.092582
0
LINE
8
Image
10
19.712067
20
26.092582
11
19.618329
21
26.359262
0
LINE
8
Image
10
19.618329
20
26.359262
11
19.577633
21
28.099493
0
LINE
8
Image
10
19.577633
20
28.099493
11
19.576575
21
29.810411
0
LINE
8
Image
10
19.576575
20
29.810411
11
19.411224
21
29.965753
0
LINE
8
Image
10
19.411224
20
29.965753
11
18.941308
21
30.228547
0
LINE
8
Image
10
18.941308
20
30.228547
11
18.636744
21
30.336005
0
LINE
8
Image
10
18.636744
20
30.336005
11
17.927373
21
30.285430
0
LINE
8
Image
10
17.927373
20
30.285430
11
17.218005
21
30.234855
0
LINE
8
Image
10
17.218005
20
30.234855
11
17.195780
21
28.057715
0
LINE
8
Image
10
17.195780
20
28.057715
11
17.173555
21
25.880576
0
LINE
8
Image
10
17.173555
20
25.880576
11
17.262325
21
25.481434
0
LINE
8
Image
10
17.262325
20
25.481434
11
17.715022
21
24.472043
0
LINE
8
Image
10
17.715022
20
24.472043
11
19.012568
21
22.851098
0
LINE
8
Image
10
19.012568
20
22.851098
11
20.253074
21
21.344866
0
LINE
8
Image
10
20.253074
20
21.344866
11
20.959882
21
20.489719
0
LINE
8
Image
10
20.959882
20
20.489719
11
21.197064
21
20.350114
0
LINE
8
Image
10
21.197064
20
20.350114
11
21.257259
21
20.369005
0
LINE
8
Image
10
21.257259
20
20.369005
11
21.250237
21
21.854768
0
LINE
8
Image
10
16.728217
20
31.756549
11
17.181789
21
31.815794
0
LINE
8
Image
10
17.181789
20
31.815794
11
17.181726
21
33.492740
0
LINE
8
Image
10
17.181726
20
33.492740
11
17.181665
21
35.169685
0
LINE
8
Image
10
17.181665
20
35.169685
11
15.824021
21
36.330826
0
LINE
8
Image
10
15.824021
20
36.330826
11
14.155714
21
37.818539
0
LINE
8
Image
10
14.155714
20
37.818539
11
13.845053
21
38.145109
0
LINE
8
Image
10
13.845053
20
38.145109
11
13.844260
21
38.562584
0
LINE
8
Image
10
13.844260
20
38.562584
11
13.843466
21
38.980056
0
LINE
8
Image
10
13.843466
20
38.980056
11
13.553181
21
39.242313
0
LINE
8
Image
10
13.553181
20
39.242313
11
13.262897
21
39.504568
0
LINE
8
Image
10
13.262897
20
39.504568
11
13.263026
21
41.655120
0
LINE
8
Image
10
13.263026
20
41.655120
11
13.263159
21
43.805674
0
LINE
8
Image
10
13.263159
20
43.805674
11
14.115740
21
44.185258
0
LINE
8
Image
10
14.115740
20
44.185258
11
20.101174
21
46.881936
0
LINE
8
Image
10
20.101174
20
46.881936
11
20.828713
21
47.162158
0
LINE
8
Image
10
20.828713
20
47.162158
11
21.173172
21
47.035098
0
LINE
8
Image
10
21.173172
20
47.035098
11
21.318314
21
46.889956
0
LINE
8
Image
10
21.318314
20
46.889956
11
21.318314
21
46.670685
0
LINE
8
Image
10
21.318314
20
46.670685
11
21.318314
21
46.451415
0
LINE
8
Image
10
21.318314
20
46.451415
11
21.498347
21
46.369386
0
LINE
8
Image
10
21.498347
20
46.369386
11
21.718824
21
46.159934
0
LINE
8
Image
10
21.718824
20
46.159934
11
21.865363
21
45.991794
0
LINE
8
Image
10
21.865363
20
45.991794
11
21.971456
21
45.951083
0
LINE
8
Image
10
21.971456
20
45.951083
11
21.971456
21
39.090813
0
LINE
8
Image
10
21.971456
20
39.090813
11
21.971456
21
32.230546
0
LINE
8
Image
10
21.971456
20
32.230546
11
22.298028
21
32.230546
0
LINE
8
Image
10
22.298028
20
32.230546
11
22.624597
21
32.230546
0
LINE
8
Image
10
22.624597
20
32.230546
11
22.625920
21
38.090682
0
LINE
8
Image
10
22.625920
20
38.090682
11
22.627243
21
43.950817
0
LINE
8
Image
10
22.627243
20
43.950817
11
22.790427
21
44.238932
0
LINE
8
Image
10
22.790427
20
44.238932
11
23.133949
21
44.615050
0
LINE
8
Image
10
23.133949
20
44.615050
11
23.314286
21
44.703053
0
LINE
8
Image
10
23.314286
20
44.703053
11
24.765711
21
44.781443
0
LINE
8
Image
10
24.765711
20
44.781443
11
27.724639
21
44.871767
0
LINE
8
Image
10
27.724639
20
44.871767
11
29.232138
21
44.883699
0
LINE
8
Image
10
29.232138
20
44.883699
11
29.317580
21
44.798260
0
LINE
8
Image
10
29.317580
20
44.798260
11
29.533649
21
44.712818
0
LINE
8
Image
10
29.533649
20
44.712818
11
29.664271
21
44.712818
0
LINE
8
Image
10
29.664271
20
44.712818
11
29.664800
21
49.883527
0
LINE
8
Image
10
29.664800
20
49.883527
11
29.665329
21
55.054236
0
LINE
8
Image
10
29.665329
20
55.054236
11
29.739619
21
55.321713
0
LINE
8
Image
10
29.739619
20
55.321713
11
29.813908
21
55.589191
0
LINE
8
Image
10
29.813908
20
55.589191
11
30.035065
21
55.775283
0
LINE
8
Image
10
30.035065
20
55.775283
11
30.256225
21
55.961377
0
LINE
8
Image
10
30.256225
20
55.961377
11
34.662781
21
55.961377
0
LINE
8
Image
10
34.662781
20
55.961377
11
39.069336
21
55.961377
0
LINE
8
Image
10
39.069336
20
55.961377
11
39.349855
21
55.674096
0
LINE
8
Image
10
39.349855
20
55.674096
11
39.691157
21
55.424380
0
LINE
8
Image
10
39.691157
20
55.424380
11
39.751934
21
55.461942
0
LINE
8
Image
10
39.751934
20
55.461942
11
39.751934
21
57.771704
0
LINE
8
Image
10
39.751934
20
57.771704
11
39.751934
21
60.081467
0
LINE
8
Image
10
39.751934
20
60.081467
11
38.944945
21
60.235143
0
LINE
8
Image
10
38.944945
20
60.235143
11
37.221378
21
60.510828
0
LINE
8
Image
10
37.221378
20
60.510828
11
36.304796
21
60.632836
0
LINE
8
Image
10
36.304796
20
60.632836
11
34.381656
21
60.637532
0
LINE
8
Image
10
34.381656
20
60.637532
11
32.458516
21
60.642229
0
LINE
8
Image
10
32.458516
20
60.642229
11
31.696517
21
60.545994
0
LINE
8
Image
10
31.696517
20
60.545994
11
29.506639
21
60.189754
0
LINE
8
Image
10
29.506639
20
60.189754
11
27.507368
21
59.684079
0
LINE
8
Image
10
27.507368
20
59.684079
11
25.579744
21
58.992706
0
LINE
8
Image
10
25.579744
20
58.992706
11
23.604811
21
58.079372
0
LINE
8
Image
10
23.604811
20
58.079372
11
22.371098
21
57.452056
0
LINE
8
Image
10
22.371098
20
57.452056
11
21.342275
21
56.760386
0
LINE
8
Image
10
21.342275
20
56.760386
11
19.358455
21
55.273518
0
LINE
8
Image
10
19.358455
20
55.273518
11
17.562029
21
53.610793
0
LINE
8
Image
10
17.562029
20
53.610793
11
15.960564
21
51.784197
0
LINE
8
Image
10
15.960564
20
51.784197
11
14.561625
21
49.805711
0
LINE
8
Image
10
14.561625
20
49.805711
11
13.372779
21
47.687319
0
LINE
8
Image
10
13.372779
20
47.687319
11
12.401592
21
45.441003
0
LINE
8
Image
10
12.401592
20
45.441003
11
11.655629
21
43.078748
0
LINE
8
Image
10
11.655629
20
43.078748
11
11.142457
21
40.612536
0
LINE
8
Image
10
11.142457
20
40.612536
11
10.983139
21
39.596537
0
LINE
8
Image
10
10.983139
20
39.596537
11
10.981816
21
37.346825
0
LINE
8
Image
10
10.981816
20
37.346825
11
10.980493
21
35.097113
0
LINE
8
Image
10
10.980493
20
35.097113
11
11.109342
21
34.189971
0
LINE
8
Image
10
11.109342
20
34.189971
11
11.596669
21
31.826914
0
LINE
8
Image
10
11.596669
20
31.826914
11
11.652721
21
31.677282
0
LINE
8
Image
10
11.652721
20
31.677282
11
13.963849
21
31.687283
0
LINE
8
Image
10
13.963849
20
31.687283
11
16.728548
21
31.756538
0
LINE
8
Image
10
16.728548
20
31.756538
11
16.728217
21
31.756549
0
LINE
8
Image
10
24.348207
20
38.305100
11
24.438922
21
38.426850
0
LINE
8
Image
10
24.438922
20
38.426850
11
24.438922
21
40.771548
0
LINE
8
Image
10
24.438922
20
40.771548
11
24.438922
21
43.116245
0
LINE
8
Image
10
24.438922
20
43.116245
11
25.307223
21
43.116245
0
LINE
8
Image
10
25.307223
20
43.116245
11
26.175526
21
43.116245
0
LINE
8
Image
10
26.175526
20
43.116245
11
26.256822
21
43.268147
0
LINE
8
Image
10
26.256822
20
43.268147
11
26.338118
21
43.420050
0
LINE
8
Image
10
26.338118
20
43.420050
11
26.295493
21
43.589883
0
LINE
8
Image
10
26.295493
20
43.589883
11
26.252866
21
43.759714
0
LINE
8
Image
10
26.252866
20
43.759714
11
26.089751
21
43.811664
0
LINE
8
Image
10
26.089751
20
43.811664
11
25.019492
21
43.863975
0
LINE
8
Image
10
25.019492
20
43.863975
11
24.112350
21
43.864240
0
LINE
8
Image
10
24.112350
20
43.864240
11
23.916434
21
43.783664
0
LINE
8
Image
10
23.916434
20
43.783664
11
23.720519
21
43.703090
0
LINE
8
Image
10
23.720519
20
43.703090
11
23.645843
21
43.425770
0
LINE
8
Image
10
23.645843
20
43.425770
11
23.571170
21
43.148453
0
LINE
8
Image
10
23.571170
20
43.148453
11
23.572228
21
40.758305
0
LINE
8
Image
10
23.572228
20
40.758305
11
23.573286
21
38.368158
0
LINE
8
Image
10
23.573286
20
38.368158
11
23.695905
21
38.232665
0
LINE
8
Image
10
23.695905
20
38.232665
11
23.818523
21
38.097172
0
LINE
8
Image
10
23.818523
20
38.097172
11
24.037905
21
38.140211
0
LINE
8
Image
10
24.037905
20
38.140211
11
24.348001
21
38.305002
0
LINE
8
Image
10
24.348001
20
38.305002
11
24.348207
21
38.305100
0
LINE
8
Image
10
15.004647
20
41.292480
11
15.004647
21
42.656746
0
LINE
8
Image
10
15.004647
20
42.656746
11
17.550679
21
43.848066
0
LINE
8
Image
10
17.550679
20
43.848066
11
20.096708
21
45.039385
0
LINE
8
Image
10
20.096708
20
45.039385
11
20.171148
21
45.194447
0
LINE
8
Image
10
20.171148
20
45.194447
11
20.245586
21
45.349508
0
LINE
8
Image
10
20.245586
20
45.349508
11
20.146418
21
45.556417
0
LINE
8
Image
10
20.146418
20
45.556417
11
20.016232
21
45.724675
0
LINE
8
Image
10
20.016232
20
45.724675
11
19.718795
21
45.706867
0
LINE
8
Image
10
19.718795
20
45.706867
11
17.793616
21
44.872058
0
LINE
8
Image
10
17.793616
20
44.872058
11
15.113504
21
43.661889
0
LINE
8
Image
10
15.113504
20
43.661889
11
14.351505
21
43.285285
0
LINE
8
Image
10
14.351505
20
43.285285
11
14.242648
21
43.183931
0
LINE
8
Image
10
14.242648
20
43.183931
11
14.218703
21
41.795455
0
LINE
8
Image
10
14.218703
20
41.795455
11
14.239896
21
40.166330
0
LINE
8
Image
10
14.239896
20
40.166330
11
14.285044
21
39.925678
0
LINE
8
Image
10
14.285044
20
39.925678
11
14.517854
21
39.862462
0
LINE
8
Image
10
14.517854
20
39.862462
11
14.750663
21
39.799245
0
LINE
8
Image
10
14.750663
20
39.799245
11
14.877663
21
39.863729
0
LINE
8
Image
10
14.877663
20
39.863729
11
15.004663
21
39.928213
0
LINE
8
Image
10
15.004663
20
39.928213
11
15.004647
21
41.292480
0
LINE
8
Image
10
55.579054
20
41.357967
11
56.953446
21
42.334373
0
LINE
8
Image
10
56.953446
20
42.334373
11
57.123377
21
42.459643
0
LINE
8
Image
10
57.123377
20
42.459643
11
56.992517
21
43.023802
0
LINE
8
Image
10
56.992517
20
43.023802
11
56.366917
21
45.074816
0
LINE
8
Image
10
56.366917
20
45.074816
11
55.441701
21
47.338427
0
LINE
8
Image
10
55.441701
20
47.338427
11
54.297940
21
49.429953
0
LINE
8
Image
10
54.297940
20
49.429953
11
54.265740
21
44.966815
0
LINE
8
Image
10
54.265740
20
44.966815
11
54.320168
21
40.505255
0
LINE
8
Image
10
54.320168
20
40.505255
11
55.579054
21
41.357967
0
LINE
8
Image
10
55.579054
20
41.357967
11
55.579054
21
41.357967
0
LINE
8
Image
10
31.581905
20
45.697602
11
31.750755
21
46.385600
0
LINE
8
Image
10
31.750755
20
46.385600
11
31.705383
21
49.311965
0
LINE
8
Image
10
31.705383
20
49.311965
11
31.622682
21
53.146436
0
LINE
8
Image
10
31.622682
20
53.146436
11
31.623476
21
53.851211
0
LINE
8
Image
10
31.623476
20
53.851211
11
31.929284
21
53.933555
0
LINE
8
Image
10
31.929284
20
53.933555
11
32.235089
21
54.015901
0
LINE
8
Image
10
32.235089
20
54.015901
11
32.490896
21
53.974391
0
LINE
8
Image
10
32.490896
20
53.974391
11
33.497597
21
53.978809
0
LINE
8
Image
10
33.497597
20
53.978809
11
34.248497
21
54.024751
0
LINE
8
Image
10
34.248497
20
54.024751
11
34.358574
21
54.134828
0
LINE
8
Image
10
34.358574
20
54.134828
11
34.468651
21
54.244906
0
LINE
8
Image
10
34.468651
20
54.244906
11
34.427553
21
54.498156
0
LINE
8
Image
10
34.427553
20
54.498156
11
34.312523
21
54.825340
0
LINE
8
Image
10
34.312523
20
54.825340
11
34.238588
21
54.899275
0
LINE
8
Image
10
34.238588
20
54.899275
11
32.875134
21
54.930258
0
LINE
8
Image
10
32.875134
20
54.930258
11
31.511682
21
54.961243
0
LINE
8
Image
10
31.511682
20
54.961243
11
31.246652
21
54.850507
0
LINE
8
Image
10
31.246652
20
54.850507
11
30.853952
21
54.544919
0
LINE
8
Image
10
30.853952
20
54.544919
11
30.726283
21
54.350069
0
LINE
8
Image
10
30.726283
20
54.350069
11
30.727341
21
52.670147
0
LINE
8
Image
10
30.727341
20
52.670147
11
30.797988
21
48.478666
0
LINE
8
Image
10
30.797988
20
48.478666
11
30.867547
21
45.967108
0
LINE
8
Image
10
30.867547
20
45.967108
11
30.993171
21
45.775384
0
LINE
8
Image
10
30.993171
20
45.775384
11
31.118795
21
45.583659
0
LINE
8
Image
10
31.118795
20
45.583659
11
31.293366
21
45.583659
0
LINE
8
Image
10
31.293366
20
45.583659
11
31.581868
21
45.697588
0
LINE
8
Image
10
31.581868
20
45.697588
11
31.581905
21
45.697602
0
LINE
8
Image
10
41.562931
20
49.588779
11
41.710899
21
49.747608
0
LINE
8
Image
10
41.710899
20
49.747608
11
41.711428
21
51.784064
0
LINE
8
Image
10
41.711428
20
51.784064
11
41.631021
21
56.346631
0
LINE
8
Image
10
41.631021
20
56.346631
11
41.619788
21
58.749206
0
LINE
8
Image
10
41.619788
20
58.749206
11
41.844445
21
58.976112
0
LINE
8
Image
10
41.844445
20
58.976112
11
42.341564
21
58.997131
0
LINE
8
Image
10
42.341564
20
58.997131
11
43.039116
21
59.027639
0
LINE
8
Image
10
43.039116
20
59.027639
11
42.937461
21
59.082748
0
LINE
8
Image
10
42.937461
20
59.082748
11
40.798352
21
59.807654
0
LINE
8
Image
10
40.798352
20
59.807654
11
40.694950
21
59.807654
0
LINE
8
Image
10
40.694950
20
59.807654
11
40.695215
21
54.854661
0
LINE
8
Image
10
40.695215
20
54.854661
11
40.695479
21
49.901667
0
LINE
8
Image
10
40.695479
20
49.901667
11
40.839286
21
49.665810
0
LINE
8
Image
10
40.839286
20
49.665810
11
40.983089
21
49.429953
0
LINE
8
Image
10
40.983089
20
49.429953
11
41.199044
21
49.429953
0
LINE
8
Image
10
41.199044
20
49.429953
11
41.414997
21
49.429953
0
LINE
8
Image
10
41.414997
20
49.429953
11
41.562931
21
49.588779
 0 
ENDSEC
 0 
EOF